<?xml version="1.0" encoding="utf-8"?>
<!-- Generator: Adobe Illustrator 23.0.1, SVG Export Plug-In . SVG Version: 6.00 Build 0)  -->
<svg version="1.1" id="Layer_1" xmlns="http://www.w3.org/2000/svg" xmlns:xlink="http://www.w3.org/1999/xlink" x="0px" y="0px"
	 viewBox="0 0 72 72" style="enable-background:new 0 0 72 72;" xml:space="preserve">
<style type="text/css">
	.st0{fill:none;stroke:#000000;stroke-width:0.25;stroke-miterlimit:10;}
	.st1{fill:none;stroke:#000000;stroke-miterlimit:10;}
	.st2{fill:none;stroke:#3AC2D5;stroke-width:0.75;stroke-miterlimit:10;}
	.st3{fill:#101034;stroke:#3AC2D5;stroke-width:0.75;stroke-miterlimit:10;}
	.st4{fill:#0E1128;stroke:#3AC2D5;stroke-width:0.75;stroke-miterlimit:10;}
	.st5{fill:#161648;stroke:#3AC2D5;stroke-width:0.75;stroke-miterlimit:10;}
	.st6{fill:#141028;stroke:#3AC2D5;stroke-width:0.75;stroke-miterlimit:10;}
	.st7{fill:#BDE0BD;stroke:#3AC2D5;stroke-width:0.75;stroke-miterlimit:10;}
	.st8{fill:#C6E3BB;stroke:#3AC2D5;stroke-width:0.75;stroke-miterlimit:10;}
	.st9{fill:#3867B1;stroke:#000000;stroke-width:0.25;stroke-miterlimit:10;}
	
</style>
<path class="st0" d="M68.6,63.3"/>
<path class="st1" d="M-15.4-40.6"/>
<path class="st1" d="M-73.8,9.2"/>
<path class="st1" d="M-39.8,7"/>
<g>
	<path class="st2" d="M59.7,10.3"/>
	<g>
		<path class="st3" d="M29.8,47.7l4.2-2V37c0-0.2-0.2-0.3-0.3-0.2l-4.4,1.7l0,8.8C29.3,47.6,29.5,47.8,29.8,47.7z"/>
		<path class="st4" d="M15.8,30.2l5.8-1.2l12,7.4c0.2,0.1,0.1,0.3,0,0.4l-4.3,1.7L15.8,30.2z"/>
		<path class="st5" d="M2.6,2.4l7.5-1.5l28.1,16.6l10.5-5.6c0.9-0.5,1.9-0.6,2.8-0.3l7,2.2L55.8,14l-1.5,0.4l-1.9,0.9l-14.7,8.8
			L2.5,2.6C2.4,2.6,2.4,2.4,2.6,2.4z"/>
		<path class="st6" d="M58.9,23.5v16c0,2.4-1.2,4.6-3.1,5.8L38.7,56.1L16.3,43.4l0-22.5l-4.7-3.1l0.3,28.6l27.1,16.8l20.5-13.5
			l2.8-3.1l1.3-2.2l0.9-2.3l0.6-2.7V36l0.2-3.8v-2.9l-0.8-2.2l-0.9-1.4l-1-0.9l-2.3-1.1L58.9,23.5z"/>
		<path class="st7" d="M29.3,47.1l0-8.4c0,0,0-0.1-0.1-0.1L16,30.4c-0.1-0.1-0.2,0-0.2,0.1l0,9.1c0,0,0,0.1,0.1,0.1l12.7,7.8
			C28.9,47.6,29.3,47.4,29.3,47.1z"/>
		<g>
			<path class="st8" d="M69.5,25.5c-0.3-9.1-9.6-14.7-17.2-10.2l-14.7,8.8L2.4,2.6c-0.1-0.1-0.2,0-0.2,0.1v9.2v27.9v9.5l35.5,21.6
				l20.8-12.6c7.3-4.4,11.6-12.8,11.4-21.6L69.5,25.5z M64.8,36.8c0,6-3,11.5-8,14.5L38.2,62.6L11.5,46.3l0.1-9.3l-0.1-9.4v-9.4
				l26.6,16.3l16.6-10.1c4.4-2.7,10,0.7,10,6.1V36.8z"/>
			<path class="st2" d="M18.8,42.2"/>
			<path class="st2" d="M18.8,39.5"/>
			<path class="st2" d="M18.8,20.9"/>
			<path class="st2" d="M18.8,20.9"/>
			<path class="st2" d="M18.8,24.8"/>
			<path class="st2" d="M11.5,25.8"/>
			<path class="st2" d="M36,36.2"/>
			<path class="st2" d="M18.8,24.8"/>
			<path class="st2" d="M11.5,44.5"/>
			<path class="st2" d="M29.3,47.9"/>
			<path class="st2" d="M35,44.8"/>
			<path class="st2" d="M35,36.7"/>
			<path class="st2" d="M18.8,24.8"/>
			<path class="st2" d="M11.5,44.5"/>
		</g>
	</g>
	<path class="st2" d="M2.6,1.7"/>
	<path class="st2" d="M34.9,3.9"/>
	<path class="st2" d="M2.6,1.7"/>
</g>
<path class="st9" d="M89.6,25.8"/>
</svg>
