<?xml version="1.0" encoding="utf-8"?>
<!-- Generator: Adobe Illustrator 23.0.1, SVG Export Plug-In . SVG Version: 6.00 Build 0)  -->
<svg version="1.1" id="Layer_1" xmlns="http://www.w3.org/2000/svg" xmlns:xlink="http://www.w3.org/1999/xlink" x="0px" y="0px"
	 viewBox="0 0 86.4 86.4" style="enable-background:new 0 0 86.4 86.4;" xml:space="preserve">
<style type="text/css">
	.st0{fill:#FEC780;stroke:#F26522;stroke-miterlimit:10;}
	.st1{fill:#FEC66B;stroke:#F26522;stroke-miterlimit:10;}
	.st2{fill:#461904;stroke:#F26522;stroke-miterlimit:10;}
	.st3{fill:#461904;stroke:#E99823;stroke-width:1.25;stroke-miterlimit:10;}
	.st4{fill:#F78D1E;}
	.st5{font-family:'MyriadPro-Regular';}
	.st6{font-size:22px;}
	.st7{fill:#F7941D;stroke:#F7941D;stroke-width:0.25;stroke-miterlimit:10;}
	.st8{font-size:7px;}
</style>
<path class="st0" d="M71.9,9.5l-9-2.4c0,0-0.1,0-0.1,0H13.6c-0.5,0-0.6,0.7-0.1,0.8L19,9.8c0,0,0.1,0,0.1,0l52.7,0.5
	C72.3,10.3,72.4,9.6,71.9,9.5z"/>
<path class="st1" d="M12.6,77.6l5.6,3.7c0.7,0.4,1.5,0,1.5-0.8V10.6c0-0.4-0.2-0.7-0.6-0.9l-5.6-2.4c-0.7-0.3-1.4,0.2-1.4,0.9v68.5
	C12.2,77.1,12.3,77.4,12.6,77.6z"/>
<image style="overflow:visible;" width="352" height="352" xlink:href="webDevelop/New folder (4)/adobeIllustrator1.png"  transform="matrix(0.2045 0 0 0.2045 88.5464 6.18)">
</image>
<path class="st2" d="M19.7,11.4v69c0,0.8,0.9,1.4,1.6,0.9l24.7-14.7c0.3-0.2,0.8-0.2,1.1,0l25.4,14.7c0.7,0.4,1.6-0.1,1.6-1l-0.9-69
	c0-0.6-0.5-1.1-1.1-1.1H20.8C20.2,10.3,19.7,10.8,19.7,11.4z"/>
<rect x="31.9" y="27.1" class="st3" width="30.2" height="30.2"/>
<text transform="matrix(1 0 0 1 38.2334 47.6118)" class="st4 st5 st6">Ai</text>
<text transform="matrix(1 0 0 1 27.6 21.2999)" class="st7 st5 st8">ASSOCIATE</text>
</svg>
