<?xml version="1.0" encoding="utf-8"?>
<!-- Generator: Adobe Illustrator 23.0.1, SVG Export Plug-In . SVG Version: 6.00 Build 0)  -->
<svg version="1.1" id="Layer_1" xmlns="http://www.w3.org/2000/svg" xmlns:xlink="http://www.w3.org/1999/xlink" x="0px" y="0px"
	 viewBox="0 0 86.4 86.4" style="enable-background:new 0 0 86.4 86.4;" xml:space="preserve">
<style type="text/css">
	.st0{fill:#FFFFFF;}
	.st1{fill:#1C305D;stroke:#71C7AD;stroke-width:0.5;}
	.st2{fill:#FFFFFF;stroke:#231F20;stroke-width:0.5;}
	.st3{fill:#0169A1;stroke:#231F20;stroke-width:0.5;}
	.st4{fill:#F9BB16;stroke:#72C9BD;stroke-width:0.5;}
	.st5{fill:#D5862B;stroke:#71C7AA;stroke-width:0.5;}
	.st6{fill:#F3743B;stroke:#B34226;stroke-width:0.5;}
	.st7{fill:none;stroke:#B34226;stroke-width:0.5;}
	.st8{fill:#232C65;stroke:#83CCB1;stroke-width:0.5;}
	.st9{fill:#E9E61E;stroke:#B34226;stroke-width:0.5;}
	.st10{fill:#232C65;stroke:#12BCBE;stroke-width:0.5;}
	.st11{fill:#2E2F7B;stroke:#B34226;stroke-width:0.5;}
	.st12{fill:#009CC6;stroke:#78CAB5;stroke-width:0.5;}
	.st13{fill:#4D4D4F;stroke:#86888A;stroke-width:0.25;stroke-miterlimit:10;}
	.st14{font-family:'MyriadPro-Regular';}
	.st15{font-size:13.1532px;}
	.st16{font-family:'FranklinGothic-Demi';}
	.st17{font-size:10.961px;}
	.st18{fill:#5F6353;}
	.st19{font-size:5.4805px;}
	.st20{fill:#EB5343;}
	.st21{fill:#4190CD;}
	.st22{fill:#62BB46;}
	.st23{fill:#EDD21A;}
	.st24{font-family:'ArialRoundedMTBold';}
	.st25{font-size:4.9324px;}
	.st26{fill:#565759;}
</style>
<circle class="st0" cx="46.5" cy="44.8" r="36"/>
<path class="st1" d="M52.5,11.8c12.6,5.3,21.1,17.4,22.1,31.1c1,14.1-6.2,27.7-18.4,34.7c1.5-0.5,3.1-1,4.6-1.5l3.7-1.8l4.4-3.1
	l3.1-2.9l2.6-3.1l1.7-2.5l1.7-3.1l1.6-4l1-4.1l0.5-4l0-4.1l-0.3-3L80.3,37l-0.7-2.4L79,32.9L77.7,30l-1.6-2.8L74.7,25l-1.9-2.3
	L71,20.7l-2.3-2l-1.7-1.3l-3-1.9l-3.3-1.4L58.1,13C56.2,12.6,54.4,12.2,52.5,11.8z"/>
<path class="st2" d="M89.4,51.7"/>
<path class="st3" d="M-64.7-7"/>
<path class="st3" d="M132.8,85.6"/>
<polygon class="st4" points="15.8,57.9 17,60.1 18.2,62.3 19.3,64 20.8,66 22.1,67.6 23.3,68.7 25,70.4 69.4,69.5 70.5,68.4 
	72.8,65.8 73.6,64.7 75.1,62.4 77.2,58.3 78.5,54.8 15.2,55.8 "/>
<polygon class="st5" points="78.5,54.8 74,52.7 14.7,53.2 15.2,55.8 "/>
<path class="st6" d="M93,98.8"/>
<path class="st7" d="M-31.6-5.6"/>
<g>
	<path class="st8" d="M10,6.5L5,3.8C4.8,3.7,4.6,3.8,4.6,4L5,48.1c0.2,18,14.1,32.8,31.8,33.8l5.1,0.3l-11-3.2l-4.3-2.4
		c0,0,0,0-0.1,0l-4.1-3.1l-3-3l-2.2-2.6l-1.5-2.2l-2.2-3.9l-1.9-4.6l-1.6-6.8l-0.3-3.7l0-5.6l0-3.7l0-5.3l0-5.3l0-4.2l0-3.9l0.1-6.1
		L10,6.5"/>
	<path class="st7" d="M5.7,82.2"/>
	<path class="st7" d="M10,6.5"/>
	<path class="st7" d="M6,5"/>
</g>
<path class="st7" d="M10,6.5"/>
<path class="st7" d="M10,6.5"/>
<path class="st9" d="M22.4-9.7"/>
<path class="st10" d="M5.5,4C5.2,3.9,5.3,3.6,5.6,3.6l36.3,0.3c2,0,4.1,0.4,6,1l8,3.1c0.2,0.1-2.5-0.6-2.7-0.6l-9-0.6l-9.8-0.1
	l-9.1-0.1l-9.6-0.1l-5.6,0L5.5,4z"/>
<path class="st11" d="M15.4-2.2"/>
<path class="st12" d="M46.8,7.2L9.8,6.9L9.5,44.5c-0.2,21,16.4,38.2,37,38.3h0C67,83,83.6,66.3,83.8,45.6v0
	C84,24.6,67.4,7.4,46.8,7.2z M46.2,78.9c-10.3-0.1-19.5-5-25.4-12.6c-4.6-5.8-7.3-13.2-7.2-21.3c0.2-18.5,15.1-33.4,33.3-33.2
	C65,12,79.6,27.1,79.5,45.6c-0.1,7.7-2.7,14.8-7.1,20.5C66.3,74,56.8,79,46.2,78.9z"/>
<text transform="matrix(0.9832 8.726608e-03 -8.580645e-03 1 11.7192 49.5474)"><tspan x="0" y="0" class="st13 st14 st15">        </tspan><tspan x="22.3" y="0" class="st13 st16 st17">MTA</tspan></text>
<text transform="matrix(0.9832 8.726608e-03 -8.580645e-03 1 37.6453 33.8237)" class="st18 st16 st19">Microsoft</text>
<rect x="29.2" y="28.6" transform="matrix(8.875031e-03 -1 1 8.875031e-03 0.4008 60.6179)" class="st20" width="3.2" height="3.1"/>
<rect x="29.2" y="32.2" transform="matrix(8.875031e-03 -1 1 8.875031e-03 -3.2868 64.2107)" class="st21" width="3.2" height="3.1"/>
<rect x="32.7" y="28.6" transform="matrix(8.875031e-03 -1 1 8.875031e-03 3.8356 64.1454)" class="st22" width="3.2" height="3.1"/>
<rect x="32.7" y="32.2" transform="matrix(8.875031e-03 -1 1 8.875031e-03 0.1481 67.7382)" class="st23" width="3.2" height="3.1"/>
<text transform="matrix(0.9831 -1.745249e-02 1.716058e-02 0.9999 19.8385 60.9078)" class="st24 st25">Software Development</text>
<text transform="matrix(0.9831 -1.745249e-02 1.716058e-02 0.9999 30.4619 67.1118)" class="st24 st25">Fundamentals</text>
<text transform="matrix(0.9831 -1.745249e-02 1.716058e-02 0.9999 42.0181 76.0185)" class="st26 st24 st25">2019</text>
</svg>
