<?xml version="1.0" encoding="utf-8"?>
<!-- Generator: Adobe Illustrator 23.0.1, SVG Export Plug-In . SVG Version: 6.00 Build 0)  -->
<svg version="1.1" id="Layer_1" xmlns="http://www.w3.org/2000/svg" xmlns:xlink="http://www.w3.org/1999/xlink" x="0px" y="0px"
	 viewBox="0 0 86.4 86.4" style="enable-background:new 0 0 86.4 86.4;" xml:space="preserve">
<style type="text/css">
	.st0{fill:#BEABA3;stroke:#27AAE1;stroke-width:0.75;stroke-miterlimit:10;}
	.st1{fill:#C5BEB8;stroke:#00AEEF;stroke-miterlimit:10;}
	.st2{fill:#020032;stroke:#27AAE1;stroke-miterlimit:10;}
	.st3{fill:#020529;stroke:#00AEEF;stroke-width:1.25;stroke-miterlimit:10;}
	.st4{fill:#00AEEF;}
	.st5{font-family:'MyriadPro-Regular';}
	.st6{font-size:22px;}
	.st7{fill:#00A79D;stroke:#00AEEF;stroke-width:0.25;stroke-miterlimit:10;}
	.st8{font-size:7px;}
</style>
<path class="st0" d="M72.9,9.4l-9-2.4c0,0-0.1,0-0.1,0H14.7c-0.5,0-0.6,0.7-0.1,0.8L20,9.7c0,0,0.1,0,0.1,0l52.7,0.5
	C73.3,10.3,73.4,9.6,72.9,9.4z"/>
<path class="st1" d="M13.6,77.5l5.6,3.7c0.7,0.4,1.5,0,1.5-0.8V10.6c0-0.4-0.2-0.7-0.6-0.9l-5.6-2.4c-0.7-0.3-1.4,0.2-1.4,0.9v68.5
	C13.2,77,13.4,77.3,13.6,77.5z"/>
<path class="st2" d="M20.8,11.3v69c0,0.8,0.9,1.4,1.6,0.9l24.7-14.7c0.3-0.2,0.8-0.2,1.1,0l25.4,14.7c0.7,0.4,1.6-0.1,1.6-1l-0.9-69
	c0-0.6-0.5-1.1-1.1-1.1H21.9C21.3,10.3,20.8,10.7,20.8,11.3z"/>
<rect x="32.9" y="27" class="st3" width="30.2" height="30.2"/>
<text transform="matrix(1 0 0 1 38.2483 49.0938)" class="st4 st5 st6">Ps</text>
<text transform="matrix(1 0 0 1 28.6475 21.2329)" class="st7 st5 st8">ASSOCIATE</text>
</svg>
